<?xml version="1.0" standalone="no"?>
<!DOCTYPE svg PUBLIC "-//W3C//DTD SVG 20010904//EN"
 "http://www.w3.org/TR/2001/REC-SVG-20010904/DTD/svg10.dtd">
<svg version="1.0" xmlns="http://www.w3.org/2000/svg"
 width="386.000000pt" height="322.000000pt" viewBox="0 0 386.000000 322.000000"
 preserveAspectRatio="xMidYMid meet">

<g transform="translate(0.000000,322.000000) scale(0.100000,-0.100000)"
fill="#000000" stroke="none">
<path d="M1130 2577 c0 -6 341 -256 370 -272 34 -18 -12 17 -175 135 -93 68
-176 128 -182 133 -7 5 -13 7 -13 4z"/>
<path d="M2403 2433 l-193 -145 0 -227 0 -226 -197 -197 -198 -198 198 0 197
0 0 -273 0 -274 190 -126 c104 -70 194 -127 200 -127 7 0 11 309 12 910 1 501
2 936 3 967 0 31 -4 58 -10 59 -5 2 -97 -63 -202 -143z"/>
<path d="M1096 2533 c-10 -66 -7 -1881 4 -1888 7 -4 10 318 10 959 0 531 -2
966 -4 966 -2 0 -6 -17 -10 -37z"/>
<path d="M1512 2048 l-2 -248 183 2 182 2 -175 6 -175 5 -5 240 -6 240 -2
-247z"/>
<path d="M1697 1612 l-187 -187 2 -265 2 -265 6 260 c3 143 7 262 8 264 1 3
84 87 184 188 100 100 180 185 177 187 -3 3 -89 -79 -192 -182z"/>
<path d="M1350 789 c-134 -87 -211 -142 -160 -114 42 24 297 189 310 201 28
27 3 13 -150 -87z"/>
</g>
</svg>
